<svg width="56" height="47" viewBox="0 0 56 47" fill="none" xmlns="http://www.w3.org/2000/svg">
<path d="M40.4453 0C41.3162 0.000214501 42.0626 0.617175 42.3115 1.48047L44.4268 11.1025H54.1338C55.1293 11.1026 56 11.9663 56 12.9531V45.0264C56 46.0132 55.1293 46.8769 54.1338 46.877H1.86719C0.871632 46.877 0 46.0132 0 45.0264V12.9531C0 11.9662 0.871632 11.1025 1.86719 11.1025H11.5742L13.6895 1.48047C13.9384 0.617146 14.6847 0.000143467 15.5557 0H40.4453ZM17.0488 3.70117L14.9336 13.3232C14.6847 14.1866 13.9383 14.8036 13.0674 14.8037H3.7334V43.1758H52.2666V14.8037H42.9336C42.0626 14.8036 41.3163 14.1866 41.0674 13.3232L38.9512 3.70117H17.0488ZM28 14.8037C34.4711 14.8037 39.8222 20.1078 39.8223 26.5225C39.8223 32.9372 34.4711 38.2422 28 38.2422C21.5291 38.242 16.1777 32.937 16.1777 26.5225C16.1778 20.108 21.5291 14.8039 28 14.8037ZM28 18.5039C23.5203 18.5041 19.9112 22.0817 19.9111 26.5225C19.9111 30.9633 23.5202 34.5408 28 34.541C32.48 34.541 36.0889 30.9634 36.0889 26.5225C36.0888 22.0816 32.4799 18.5039 28 18.5039Z" fill="#FFFCF5"/>
</svg>
