<svg width="42" height="38" viewBox="0 0 42 38" fill="none" xmlns="http://www.w3.org/2000/svg">
<path d="M41.9916 16.4V16.2667L38.2476 0.799999C38.1139 0.399999 37.7127 0 37.3116 0H4.68557C4.28443 0 3.88329 0.266666 3.74958 0.799999L0.00561217 16.1333V16.2667C-0.128101 19.0667 2.14502 21.6 4.953 21.7333C6.69127 21.7333 8.0284 20.9333 8.9644 19.4667C9.90039 20.9333 11.2375 21.7333 12.9758 21.7333C14.7141 21.7333 16.0512 20.8 16.9872 19.4667C17.9232 20.9333 19.394 21.7333 20.9986 21.7333C22.7369 21.7333 24.074 20.8 25.01 19.4667C25.946 20.9333 27.4168 21.7333 29.0214 21.7333C30.6259 21.7333 32.0968 20.8 33.0328 19.4667C33.835 20.6667 35.0385 21.6 36.5093 21.7333V35.8667H26.6145V32.8C26.6145 29.0667 24.3414 26.4 21.1323 26.4C17.9232 26.4 15.3826 29.2 15.3826 32.8V35.7333H5.62157V26.2667C5.62157 25.7333 5.22043 25.2 4.55186 25.2C3.88329 25.2 3.61587 25.8667 3.61587 26.4V36.9333C3.61587 37.4667 4.01701 38 4.68557 38H16.4523C16.9872 38 17.522 37.6 17.522 36.9333V32.9333C17.522 30.4 19.1266 28.5333 21.266 28.5333C23.4054 28.5333 24.7425 30.2667 24.7425 32.8V36.9333C24.7425 37.4667 25.1437 38 25.8123 38H37.7127C38.2476 38 38.7824 37.6 38.7824 36.9333V21.6C40.6544 20.8 42.1253 18.8 41.9916 16.4ZM37.0442 19.8667C35.1722 19.8667 34.2362 18.1333 33.9688 16.2667C33.9688 15.7333 33.4339 15.3333 33.0328 15.3333C32.4979 15.3333 32.0968 15.7333 32.0968 16.2667C31.9631 18 30.8934 19.8667 29.0214 19.8667C27.4168 19.8667 26.2134 18.4 25.946 16.2667C25.946 15.7333 25.4111 15.3333 25.01 15.3333C24.4751 15.3333 24.074 15.7333 24.074 16.2667C23.9403 18.4 22.7369 19.8667 20.9986 19.8667C19.1266 19.8667 18.1906 18.1333 17.9232 16.2667C17.9232 15.7333 17.3883 15.3333 16.9872 15.3333C16.4523 15.3333 16.0512 15.7333 16.0512 16.2667C15.9175 18.4 14.7141 19.8667 12.9758 19.8667C11.2375 19.8667 10.1678 18.5333 9.90039 16.2667C9.90039 15.7333 9.36553 15.3333 8.9644 15.3333C8.42954 15.3333 8.0284 15.7333 7.89469 16.2667C7.62726 18.5333 6.55756 19.8667 4.953 19.8667C3.21473 19.7333 1.8776 18.2667 1.8776 16.5333L5.35414 2H36.3756L39.9859 16.5333C40.1196 18.2667 38.7824 19.7333 37.0442 19.8667Z" fill="#FFFCF5"/>
</svg>
