<svg width="42" height="40" viewBox="0 0 42 40" fill="none" xmlns="http://www.w3.org/2000/svg">
<path d="M41.9803 17.0301C41.9803 7.59745 32.5662 -0.0789185 20.9902 -0.0789185C9.41413 -0.0789185 0 7.59745 0 17.0301C0 25.4761 7.46841 32.5605 17.5508 33.9023C18.2387 34.0602 19.1624 34.3562 19.3982 34.9482C19.6144 35.481 19.5358 36.3098 19.4572 36.8624C19.4572 36.8624 19.2017 38.3424 19.1624 38.6581C19.0641 39.1909 18.7496 40.7499 20.9902 39.8027C23.2307 38.8555 33.0772 32.6591 37.4796 27.5679C40.526 24.2131 41.9803 20.7992 41.9803 17.0301ZM13.5807 22.0819C13.5807 22.299 13.4038 22.4766 13.1876 22.4766H7.29153C7.07534 22.4766 6.89846 22.299 6.89846 22.0819V12.8861C6.89846 12.669 7.07534 12.4914 7.29153 12.4914H8.78521C9.0014 12.4914 9.17829 12.669 9.17829 12.8861V20.1875H13.1876C13.4038 20.1875 13.5807 20.3651 13.5807 20.5822V22.0819ZM17.138 22.0819C17.138 22.299 16.9612 22.4766 16.745 22.4766H15.2513C15.0351 22.4766 14.8582 22.299 14.8582 22.0819V12.8861C14.8582 12.669 15.0351 12.4914 15.2513 12.4914H16.745C16.9612 12.4914 17.138 12.669 17.138 12.8861V22.0819ZM27.2794 22.0819C27.2794 22.299 27.1025 22.4766 26.8863 22.4766H25.4123C25.373 22.4766 25.3336 22.4766 25.314 22.4569H25.2943C25.2943 22.4569 25.2943 22.4569 25.2747 22.4569H25.255H25.2354C25.2354 22.4569 25.2354 22.4569 25.2157 22.4569L25.1961 22.4371C25.1568 22.4174 25.1175 22.3779 25.0978 22.3384L20.8919 16.6552V22.1214C20.8919 22.3384 20.715 22.5161 20.4988 22.5161H19.0051C18.789 22.5161 18.6121 22.3384 18.6121 22.1214V12.8861C18.6121 12.669 18.789 12.4914 19.0051 12.4914H20.4792C20.4792 12.4914 20.4792 12.4914 20.4988 12.4914H20.5185H20.5381H20.5578H20.5774C20.5774 12.4914 20.5774 12.4914 20.5971 12.4914H20.6168C20.6168 12.4914 20.6168 12.4914 20.6364 12.4914C20.6364 12.4914 20.6561 12.4914 20.6561 12.5111C20.6561 12.5111 20.6561 12.5111 20.6757 12.5111C20.6757 12.5111 20.6954 12.5111 20.6954 12.5309C20.6954 12.5309 20.6954 12.5309 20.715 12.5309C20.715 12.5309 20.7347 12.5309 20.7347 12.5506C20.7347 12.5506 20.7347 12.5506 20.7543 12.5506L20.774 12.5703L20.7936 12.5901C20.8133 12.6098 20.8133 12.6098 20.8329 12.6295L25.0192 18.3128V12.8861C25.0192 12.669 25.1961 12.4914 25.4123 12.4914H26.9059C27.1221 12.4914 27.299 12.669 27.299 12.8861V22.0819H27.2794ZM35.3964 14.3661C35.3964 14.5831 35.2195 14.7607 35.0033 14.7607H30.9939V16.3197H35.0033C35.2195 16.3197 35.3964 16.4973 35.3964 16.7144V18.2141C35.3964 18.4312 35.2195 18.6088 35.0033 18.6088H30.9939V20.1678H35.0033C35.2195 20.1678 35.3964 20.3454 35.3964 20.5624V22.0622C35.3964 22.2792 35.2195 22.4569 35.0033 22.4569H29.1072C28.891 22.4569 28.7141 22.2792 28.7141 22.0622V12.8861C28.7141 12.669 28.891 12.4914 29.1072 12.4914H35.0033C35.2195 12.4914 35.3964 12.669 35.3964 12.8861V14.3661Z" fill="white"/>
</svg>
