<svg width="47" height="40" viewBox="0 0 47 40" fill="none" xmlns="http://www.w3.org/2000/svg">
<path d="M23.1219 40C22.5924 40 22.0713 39.8377 21.6258 39.5387C18.6588 37.5224 8.62323 30.5425 4.13494 25.3225C0.63844 21.2644 -0.706366 16.3264 0.352669 11.4396C1.35287 6.78343 4.42911 2.87911 8.58121 0.982486C10.0101 0.333191 11.5566 0 13.1872 0C16.3054 0 19.7347 1.23879 23.0967 3.58821L23.1135 3.6053C26.4839 1.24733 29.9132 0.00854336 33.0399 0.00854336C34.6705 0.00854336 36.217 0.341734 37.6458 0.99103C41.7979 2.88766 44.8742 6.79197 45.8744 11.4481C46.925 16.3434 45.5802 21.273 42.0921 25.3311C41.6971 25.7924 41.2432 26.2794 40.7305 26.8005L39.4949 28.0137C39.0663 28.4152 38.6208 28.8253 38.167 29.2268C37.5282 29.7992 36.7045 30.1068 35.8472 30.1068C35.8303 30.1068 35.8219 30.1068 35.8051 30.1068C35.6538 30.9611 35.2 31.7386 34.5192 32.2768C34.2586 32.4904 33.9981 32.6954 33.7291 32.9005C33.1155 33.3789 32.3507 33.6523 31.5774 33.6523C31.5018 33.6523 31.4261 33.6523 31.3505 33.6437C31.1656 34.4895 30.6781 35.2414 29.9804 35.754C29.8712 35.8394 29.7619 35.9163 29.6526 35.9932C29.0643 36.4203 28.3667 36.6852 27.6522 36.7023C27.501 36.7108 27.3497 36.7023 27.19 36.6852C26.9798 37.531 26.4671 38.2742 25.7527 38.7612C25.198 39.1457 24.8113 39.402 24.5844 39.5557C24.1557 39.8462 23.6514 40 23.1219 40ZM13.1872 2.34942C11.8928 2.34942 10.6573 2.61427 9.53098 3.12687C6.04288 4.71593 3.45413 8.01367 2.60522 11.9436C1.71429 16.0871 2.87418 20.2905 5.87478 23.7762C10.2874 28.9022 20.8442 36.1811 22.9202 37.5822C22.979 37.6249 23.0547 37.6506 23.1303 37.6506C23.206 37.6506 23.2732 37.625 23.3321 37.5908C23.6346 37.3857 24.0297 37.1209 24.4499 36.8304C24.6853 36.6681 24.8618 36.4374 24.9458 36.164C25.0803 35.7198 24.9542 35.2499 24.6432 34.9338L21.7603 32.0034C21.4073 31.6446 21.4073 31.0637 21.7603 30.7134L21.9536 30.5083C22.1133 30.346 22.3234 30.2349 22.5504 30.2179C22.8109 30.2008 23.0631 30.2947 23.248 30.4827L26.6941 33.9855C26.9378 34.2332 27.2656 34.3614 27.6102 34.3443C27.854 34.3358 28.0809 34.2418 28.2826 34.0965C28.3919 34.0197 28.5012 33.9342 28.6104 33.8573C28.8289 33.695 29.0055 33.4643 29.0811 33.1995C29.2072 32.7552 29.0895 32.2939 28.7785 31.9778L25.593 28.7399C25.4333 28.5775 25.324 28.3639 25.3072 28.1333C25.2904 27.8684 25.3829 27.6121 25.5678 27.4242L25.7695 27.2191C25.9292 27.0568 26.1393 26.9457 26.3663 26.9287C26.6268 26.9116 26.879 27.0056 27.0639 27.1935L30.7117 30.8928C30.9386 31.1235 31.2412 31.2687 31.5606 31.2772C31.838 31.2858 32.1069 31.1918 32.3339 31.0209C32.586 30.8244 32.8298 30.6279 33.0819 30.4314C33.2836 30.2691 33.4517 30.047 33.519 29.7907C33.645 29.355 33.519 28.8936 33.208 28.5775L29.3837 24.6903C29.1988 24.5023 29.1063 24.2546 29.1231 23.9812C29.1399 23.7505 29.2492 23.537 29.4089 23.3746L29.5854 23.1952C29.7451 23.0329 29.9552 22.9218 30.1822 22.9047C30.4427 22.8877 30.6949 22.9816 30.8798 23.1696L35.0151 27.3644C35.2672 27.6207 35.6202 27.7488 35.9816 27.7147C36.2422 27.689 36.4859 27.5694 36.6877 27.3985C37.0071 27.1166 37.7467 26.3563 38.0493 26.0743L26.0301 14.1051L24.3743 15.3951C23.1892 16.3178 21.7771 16.8048 20.281 16.8048C18.3479 16.8048 16.5072 15.9675 15.2296 14.5066L13.7755 12.8407C13.2712 12.2597 13.3469 11.3712 13.9436 10.8928L21.172 5.09184C18.3899 3.29774 15.6414 2.34942 13.1872 2.34942ZM26.1477 11.337C26.4335 11.337 26.7193 11.4566 26.9126 11.6702L39.6967 24.4682C40.1001 24.0496 40.0329 24.135 40.3439 23.7762C43.3445 20.2905 44.5044 16.0871 43.6134 11.9436C42.7645 8.01367 40.1842 4.72448 36.6961 3.13541C35.5698 2.62281 34.3343 2.35797 33.0399 2.35797C30.4595 2.35797 27.5682 3.40026 24.6685 5.37377C24.2314 5.67279 23.7859 5.99744 23.3573 6.33063L23.2984 6.37334L16.1794 12.0889L16.9442 12.9603C17.7847 13.9171 18.9951 14.4724 20.2642 14.4724C21.2476 14.4724 22.1806 14.1563 22.9538 13.5498L25.509 11.5592C25.6939 11.4139 25.9124 11.337 26.1477 11.337Z" fill="#FFFCF5"/>
</svg>
