<svg width="40" height="54" viewBox="0 0 40 54" fill="none" xmlns="http://www.w3.org/2000/svg">
<path d="M25.9688 0C26.3134 0.000139511 26.6321 0.212089 26.7646 0.530273L29.0986 5.96777C29.2047 6.23303 29.1515 6.65792 28.9658 6.87012L23.1836 13.793C32.706 15.3316 40 23.6078 40 33.5547C39.9999 44.5891 31.0344 53.5547 20 53.5547C8.96573 53.5546 0.000143538 44.589 0 33.5547C0 23.6077 7.29501 15.3314 16.791 13.793L11.0078 6.87012C10.8222 6.60487 10.7699 6.20646 10.876 5.96777L13.2363 0.530273C13.369 0.21208 13.6875 0 14.0322 0H25.9688ZM20.6631 16.8438C20.5039 17.0558 20.2651 17.1621 20 17.1621C19.7349 17.162 19.496 17.0294 19.3369 16.8438L18.1172 15.3848C8.91295 16.3131 1.72461 24.1117 1.72461 33.5547C1.72475 43.6341 9.92064 51.8299 20 51.8301C30.0795 51.8301 38.2762 43.6076 38.2764 33.5547C38.2764 24.1118 31.0879 16.3398 21.8838 15.3848L20.6631 16.8438ZM20 17.4531C28.8593 17.4531 36.1005 24.6681 36.0742 33.5273C36.0742 42.3868 28.8594 49.6016 20 49.6016C11.1407 49.6014 3.92578 42.3867 3.92578 33.5273C3.926 24.6682 11.1409 17.4533 20 17.4531ZM20 19.2041C12.0956 19.2043 5.65039 25.6237 5.65039 33.5547C5.65062 41.4589 12.0693 47.9041 20 47.9043C27.9309 47.9043 34.3769 41.459 34.3506 33.5547C34.3506 25.6502 27.931 19.2041 20 19.2041ZM18.1172 7.18848L20 13.3418L21.8838 7.18848H18.1172ZM13.5283 7.18848L17.9316 12.4404L16.3135 7.18848H13.5283ZM23.6875 7.18848L22.0693 12.4404L26.4727 7.18848H23.6875ZM12.9707 5.46387H15.4912L14.1113 2.86426L12.9707 5.46387ZM18.4355 5.46387H21.6182L20.0264 2.65234L18.4355 5.46387ZM24.4834 5.46387H26.9766L25.8623 2.86426L24.4834 5.46387ZM15.4912 1.75098L16.9766 4.53613L18.541 1.75098H15.4912ZM21.4854 1.75098L23.0244 4.53613L24.5361 1.75098H21.4854Z" fill="#FFFCF5"/>
</svg>
