<svg width="45" height="45" viewBox="0 0 45 45" fill="none" xmlns="http://www.w3.org/2000/svg">
<g clip-path="url(#clip0_386_1599)">
<path d="M38.0713 31.7817C38.0988 31.6791 38.0988 31.6791 38.1263 31.5765C38.1538 31.474 38.1538 31.474 38.0787 31.3439C38.1062 31.2413 38.0036 31.2138 38.0311 31.1113C38.0586 31.0087 37.956 30.9812 37.956 30.9812C37.956 30.9812 37.8809 30.8511 37.7783 30.8237C37.6757 30.7962 37.7032 30.6936 37.6006 30.6661L37.4981 30.6386L28.8159 26.1134C28.5357 25.9284 28.0979 25.921 27.8103 26.1738L23.6758 28.4741C20.6628 25.358 18.4852 21.5863 17.2931 17.4189L21.3525 14.9885C21.6126 14.8383 21.8251 14.4555 21.9075 14.1478L22.3297 4.36622L22.3572 4.26364C22.3847 4.16106 22.3847 4.16106 22.3096 4.031C22.3371 3.92843 22.2345 3.90094 22.2345 3.90094C22.262 3.79837 22.1594 3.77088 22.1594 3.77088C22.1594 3.77088 22.0843 3.64082 21.9817 3.61333C21.8791 3.58585 21.8791 3.58585 21.8041 3.45579C21.7015 3.4283 21.7015 3.4283 21.5989 3.40082C21.6264 3.29824 21.6264 3.29824 21.6264 3.29824L11.3688 0.549719L11.2662 0.522234L11.1636 0.494749C9.74767 0.44517 8.80239 1.51117 8.43772 3.28245C4.84597 20.7901 14.5052 37.6706 31.7709 43.3963C33.207 43.7811 35.0131 43.6054 35.3704 42.2719L38.0713 31.7817C38.1464 31.9117 38.0438 31.8843 38.0713 31.7817ZM10.5442 3.627C10.6816 3.11412 10.8942 2.7313 10.9216 2.62873L20.1535 5.1024L19.7809 13.468L15.4614 16.0486C15.3314 16.1237 15.3039 16.2263 15.1738 16.3013C15.1738 16.3013 15.1738 16.3013 15.1463 16.4039C15.1188 16.5065 14.9888 16.5816 14.9613 16.6842C14.9613 16.6842 14.9613 16.6842 14.9338 16.7867C14.9063 16.8893 14.8788 16.9919 14.9539 17.122L14.9264 17.2245L14.899 17.3271C16.1789 22.3975 18.8822 27.0797 22.6333 30.7234L22.7359 30.7509L22.8385 30.7784C22.9411 30.8059 23.0162 30.9359 23.1187 30.9634C23.2213 30.9909 23.3239 31.0184 23.4539 30.9433L23.5565 30.9708C23.6591 30.9983 23.7892 30.9232 23.9192 30.8481L28.2112 28.3701L35.6424 32.2303L33.1687 41.4621C33.0661 41.4346 32.6283 41.4273 32.3206 41.3448C16.2858 35.9489 7.09725 20.184 10.5442 3.627Z" fill="#FFFCF5"/>
</g>
<defs>
<clipPath id="clip0_386_1599">
<rect width="36.1062" height="36" fill="white" transform="translate(9.31749) rotate(15)"/>
</clipPath>
</defs>
</svg>
