<svg width="32" height="38" viewBox="0 0 32 38" fill="none" xmlns="http://www.w3.org/2000/svg">
<path d="M31 0C31.6 0 32 0.4 32 1V37C32 37.6 31.6 38 31 38H1C0.4 38 0 37.6 0 37V1C0 0.4 0.4 0 1 0H31ZM2 10H25C25.6 10 26 10.4 26 11C26 11.6 25.6 12 25 12H2V36H30V2H2V10ZM9 28C10.1046 28 11 28.8954 11 30C11 31.1046 10.1046 32 9 32C7.89543 32 7 31.1046 7 30C7 28.8954 7.89543 28 9 28ZM16 28C17.1046 28 18 28.8954 18 30C18 31.1046 17.1046 32 16 32C14.8954 32 14 31.1046 14 30C14 28.8954 14.8954 28 16 28ZM23 28C24.1046 28 25 28.8954 25 30C25 31.1046 24.1046 32 23 32C21.8954 32 21 31.1046 21 30C21 28.8954 21.8954 28 23 28ZM9 22C10.1046 22 11 22.8954 11 24C11 25.1046 10.1046 26 9 26C7.89543 26 7 25.1046 7 24C7 22.8954 7.89543 22 9 22ZM16 22C17.1046 22 18 22.8954 18 24C18 25.1046 17.1046 26 16 26C14.8954 26 14 25.1046 14 24C14 22.8954 14.8954 22 16 22ZM23 22C24.1046 22 25 22.8954 25 24C25 25.1046 24.1046 26 23 26C21.8954 26 21 25.1046 21 24C21 22.8954 21.8954 22 23 22ZM9 16C10.1046 16 11 16.8954 11 18C11 19.1046 10.1046 20 9 20C7.89543 20 7 19.1046 7 18C7 16.8954 7.89543 16 9 16ZM16 16C17.1046 16 18 16.8954 18 18C18 19.1046 17.1046 20 16 20C14.8954 20 14 19.1046 14 18C14 16.8954 14.8954 16 16 16ZM23 16C24.1046 16 25 16.8954 25 18C25 19.1046 24.1046 20 23 20C21.8954 20 21 19.1046 21 18C21 16.8954 21.8954 16 23 16Z" fill="#FFFCF5"/>
</svg>
