<svg width="41" height="48" viewBox="0 0 41 48" fill="none" xmlns="http://www.w3.org/2000/svg">
<path d="M19.251 0C21.0477 0 22.5879 1.54014 22.5879 3.33691V12.1924C24.6412 13.3474 31.4427 17.4541 32.7266 19.8926C34.01 22.3311 35.422 33.7537 35.6787 35.9355L37.2188 38.2451C37.3471 38.3735 37.3477 38.5025 37.3477 38.6309L39.0156 38.374C39.5289 38.2457 40.0424 38.6304 40.1709 39.1436L40.9404 44.1494C41.0687 44.6627 40.6842 45.1763 40.1709 45.3047L24.8984 47.999H24.7695C24.6412 47.999 24.3851 47.9992 24.2568 47.8711C24.0002 47.7428 23.8711 47.4862 23.8711 47.2295L22.9727 42.2246C22.8443 41.7112 23.2298 41.1977 23.7432 41.0693L24.8984 40.8125V40.6836L23.3584 36.1924C22.2033 35.294 17.454 31.1872 15.6572 28.2354C15.0155 27.2086 15.0161 26.1812 15.7861 25.4111C16.8129 24.3847 18.8659 24.257 20.5342 25.1553V3.33691C20.5342 2.56695 19.893 1.92494 19.123 1.9248H3.33691C2.56687 1.9248 1.9248 2.56687 1.9248 3.33691V36.9619C1.9248 37.732 2.56687 38.374 3.33691 38.374H19.123C19.7645 38.3741 20.1493 38.7589 20.1494 39.4004C20.1494 40.042 19.6363 40.4276 19.123 40.4277H3.33691C1.54024 40.4277 0.000171257 38.8875 0 37.0908V3.33691C0 1.54014 1.54014 0 3.33691 0H19.251ZM25.0264 42.7373L25.54 45.9463L38.8877 43.5078L38.374 40.2988L25.0264 42.7373ZM22.5879 25.54C22.5878 25.7967 22.4594 26.0533 22.3311 26.1816C22.8444 26.4383 23.4866 26.6945 24 26.9512C24.5133 27.2079 24.7694 27.722 24.5127 28.2354C24.2559 28.7484 23.7427 29.0047 23.2295 28.748C22.0745 28.2347 20.9196 27.5928 19.7646 26.9512C18.7379 26.3095 17.4539 26.5666 17.1973 26.8232C17.0693 26.9517 17.1979 27.2086 17.3262 27.3369C19.1181 30.2805 24.7379 35.0105 24.7695 35.0371C24.8978 35.1654 25.0262 35.2936 25.0264 35.4219L26.6953 40.1709V40.5557L35.4219 39.0156L34.0107 36.7051C33.8824 36.5767 33.8818 36.4487 33.8818 36.3203C33.2402 30.9302 31.957 22.332 31.0586 20.6631C30.2885 19.2513 25.9248 16.4275 22.5879 14.374V25.54ZM6.16016 29.5186C6.80177 29.5186 7.18739 30.0316 7.1875 30.5449V34.3955C7.18744 35.0371 6.80181 35.4219 6.16016 35.4219C5.51864 35.4218 5.13386 34.9088 5.13379 34.3955V30.5449C5.1339 30.0317 5.51866 29.5187 6.16016 29.5186ZM11.2939 15.4014C13.9891 15.4014 16.1709 17.5832 16.1709 20.2783C16.1707 22.9733 13.989 25.1553 11.2939 25.1553C8.59896 25.1552 6.41724 22.9732 6.41699 20.2783C6.41699 17.5832 8.59881 15.4014 11.2939 15.4014ZM11.2939 17.4541C9.75388 17.4541 8.4707 18.7382 8.4707 20.2783C8.47096 21.8182 9.75403 23.1015 11.2939 23.1016C12.8339 23.1016 14.1169 21.8182 14.1172 20.2783C14.1172 18.7382 12.834 17.4541 11.2939 17.4541ZM16.4277 5.13379C17.0693 5.13384 17.454 5.64689 17.4541 6.16016V10.0107C17.454 10.524 17.0693 11.0371 16.4277 11.0371C15.7861 11.0371 15.4014 10.5241 15.4014 10.0107V6.16016C15.4015 5.51858 15.7861 5.13379 16.4277 5.13379Z" fill="#FFFCF5"/>
</svg>
