<svg width="40" height="53" viewBox="0 0 40 53" fill="none" xmlns="http://www.w3.org/2000/svg">
<path d="M39.9767 40.3174L39.2549 29.9748C39.022 25.5055 35.3661 21.9956 30.8952 21.9956H30.8254L29.5214 18.6494C29.1488 17.6901 28.5201 16.9179 27.6585 16.3563C28.6598 14.6715 29.1954 12.7528 29.1954 10.7872C29.2419 4.84371 24.3985 0 18.4839 0C12.546 0 7.72586 4.84371 7.72586 10.8106C7.72586 16.7775 12.546 21.6212 18.4839 21.6212C19.1359 21.6212 19.7646 21.551 20.4166 21.4574C20.4399 21.5744 20.4632 21.668 20.4865 21.785H15.8992C8.68057 21.785 5.49042 24.1015 3.23169 31.0044C3.20841 31.0746 1.4154 37.2053 0.251109 42.1894C-0.284464 44.506 0.041537 46.5417 1.18254 47.9691C2.02083 49.0221 3.27827 49.6305 4.60556 49.6305C4.62884 49.6305 7.28343 49.5603 8.77372 49.5369V53H10.9859V49.4667L26.2148 49.1157H26.2614C28.2639 48.9987 29.8008 47.8989 30.4528 46.1673C30.546 46.2141 30.6391 46.2609 30.7322 46.3077V53H32.9444V46.8927C33.6197 46.9395 34.2717 46.8927 34.947 46.7523C37.5783 46.1205 40.2794 43.8742 39.9767 40.3174ZM26.2614 39.6155L11.1023 39.2645L12.2899 34.9823L10.1476 34.3974L8.58743 40.0366C8.49429 40.3642 8.56415 40.7152 8.77372 40.996C8.98329 41.2768 9.28601 41.4406 9.63529 41.4406L26.1449 41.815C26.8202 41.8618 27.3791 42.0724 27.7982 42.4468L28.0311 43.1254C28.1708 43.5232 28.3571 43.8976 28.5667 44.272V44.2954C28.5667 45.3717 27.9379 46.6821 26.1216 46.7991L4.67541 47.3373C3.97684 47.3607 3.34812 47.0565 2.90569 46.5183C2.20712 45.6525 2.04412 44.2954 2.41669 42.6574C3.48784 38.0009 5.16442 32.2914 5.3507 31.6362C7.30671 25.6225 9.56543 23.9845 15.8992 23.9845H21.2549L26.8202 39.6857C26.6339 39.6623 26.4477 39.6389 26.2614 39.6155ZM25.5395 15.6309C24.7478 15.5607 23.9561 15.6777 23.2342 15.9585C21.8603 16.5201 20.8358 17.7135 20.4399 19.1642C19.7879 19.328 19.1126 19.3982 18.4606 19.3982C13.7569 19.3982 9.91472 15.5373 9.91472 10.8106C9.91472 6.08389 13.7569 2.22296 18.4839 2.22296C23.1876 2.22296 27.0298 6.08389 27.0298 10.8106C27.0298 12.5422 26.5175 14.2035 25.5395 15.6309ZM24.0958 18.0177C24.4218 17.8773 24.7478 17.8305 25.0738 17.8305C25.4231 17.8305 25.7724 17.9007 26.0751 18.0411C26.7271 18.3219 27.2161 18.8366 27.4722 19.4918L32.7581 33.0636L34.8073 32.2446L31.7102 24.2653C34.621 24.6631 36.8797 27.0733 37.0194 30.0918L37.7413 40.4812C37.9276 42.7276 36.2277 44.1316 34.4347 44.506C32.7581 44.857 30.7788 44.3656 30.0802 42.4234L22.6288 21.3638C22.1863 20.03 22.8151 18.5324 24.0958 18.0177Z" fill="#FFFCF5"/>
</svg>
