<svg width="140" height="67" viewBox="0 0 140 67" fill="none" xmlns="http://www.w3.org/2000/svg">
<path d="M0 66.6611C21.4185 48.4006 42.8369 30.1502 64.1654 11.9694C61.5656 9.2996 59.0058 6.66962 56.296 3.89021C57.8659 2.56525 59.2658 1.32 60.7657 0.204247C61.0156 0.0149683 61.8056 0.273982 62.1556 0.552919C64.7154 2.66487 67.2252 4.8366 69.875 7.08802C72.1448 5.16535 74.4147 3.24267 76.6745 1.32996C76.9645 1.08091 77.2845 0.861743 77.5245 0.572843C78.1944 -0.194235 78.7844 -0.174311 79.5443 0.532995C80.7442 1.66867 82.0441 2.6848 83.2441 3.71089C80.6242 6.39068 78.0444 9.03062 75.3646 11.7702C96.8631 30.0904 118.312 48.3807 140 66.8603C139.33 66.9101 138.94 66.9699 138.54 66.9699C133.13 66.9799 127.711 66.94 122.301 66.9998C121.151 67.0098 120.381 66.6412 119.581 65.8542C103.413 49.9647 87.2238 34.1051 71.0449 18.2356C70.7049 17.9068 70.355 17.588 69.895 17.1597C68.5251 18.4946 67.1652 19.7896 65.8353 21.1046C50.5964 36.0577 35.3675 51.0007 20.1686 65.9737C19.4286 66.7009 18.7187 66.9998 17.6787 66.9898C11.8492 66.94 6.00957 66.9699 0.169988 66.9699C0.119991 66.8703 0.0599957 66.7607 0 66.6611Z" fill="#B57A3F"/>
</svg>
