<svg width="48" height="62" viewBox="0 0 48 62" fill="none" xmlns="http://www.w3.org/2000/svg">
<g clip-path="url(#clip0_1_378)">
<path d="M35.0783 45.0713C43.3151 40.2617 47.6927 33.3431 47.9999 23.8861C44.8415 23.8861 41.9039 23.8861 38.9855 23.8861C38.2847 34.1161 30.1055 38.8493 23.4719 38.5631C16.1759 38.2481 10.0511 32.6656 9.28314 25.4225C8.51514 18.1222 13.2383 11.3182 20.3231 9.58137C23.9903 8.68434 27.5615 9.02788 30.9119 10.8124C35.6063 13.3031 38.1215 17.3493 39.1583 22.5215C41.5871 15.1353 44.0159 7.74914 46.5311 0.0766743C44.0447 1.16456 41.8655 2.0425 39.7535 3.06359C38.8031 3.52165 38.0351 3.54073 37.0847 3.07313C30.5471 -0.133269 23.7791 -0.934869 16.7231 1.15502C3.67674 5.01988 -3.56166 20.2598 1.76634 32.7324C4.77114 39.775 9.93594 44.451 17.2991 46.684C18.0383 46.9131 18.3167 47.2089 18.2879 47.9819C18.2303 49.9286 18.2687 51.8754 18.2687 53.8126C18.2687 56.5132 18.2687 59.2138 18.2687 61.9908C22.1471 61.9908 25.8911 61.9908 29.7407 61.9908C29.7407 61.4182 29.7407 60.9315 29.7407 60.4448C29.7407 56.3319 29.7311 52.2094 29.7599 48.0964C29.7599 47.6956 29.8847 47.0276 30.1343 46.9417C31.4783 46.4836 32.8511 46.121 34.3583 45.453L35.0783 45.0713Z" fill="#B57A3F"/>
</g>
<circle cx="24" cy="24" r="15" fill="#1D2B4B"/>
<path d="M24.8078 16.0572C24.619 15.9809 24.3987 15.9809 24.2099 16.0572C24.1155 16.0953 24.029 16.1486 23.9503 16.2248L19.2301 20.7897C18.9233 21.0869 18.9233 21.567 19.2301 21.8643C19.5369 22.1615 20.0325 22.1615 20.3394 21.8643L23.7143 18.5949V31.2379C23.7143 31.6571 24.0683 32 24.501 32C24.9337 32 25.2877 31.6571 25.2877 31.2379V18.6025L28.6626 21.8719C28.9694 22.1691 29.465 22.1691 29.7719 21.8719C29.9292 21.7195 30 21.5289 30 21.3308C30 21.1327 29.9213 20.9421 29.7719 20.7897L25.0517 16.2172C24.9809 16.1486 24.8943 16.0876 24.7921 16.0495L24.8078 16.0572Z" fill="#FFFCF5"/>
<defs>
<clipPath id="clip0_1_378">
<rect width="48" height="62" fill="white"/>
</clipPath>
</defs>
</svg>
