<svg width="40" height="37" viewBox="0 0 40 37" fill="none" xmlns="http://www.w3.org/2000/svg">
<path d="M25.8315 30.2225C24.3801 29.1322 22.9686 28.0707 21.5286 26.9862C21.8029 26.6093 22.0629 26.2497 22.3658 25.8269C21.8972 25.9851 21.4886 26.103 21.0972 26.267C21.0229 26.2986 20.9858 26.4971 20.9858 26.618C20.9772 27.8636 20.9801 29.1063 20.9801 30.3519C20.9801 30.4986 20.9801 30.6482 20.9801 30.8208C19.8315 30.8208 18.7144 30.8208 17.5544 30.8208C17.5544 29.9837 17.5544 29.1667 17.5544 28.3497C17.5544 27.7629 17.5429 27.1732 17.5601 26.5863C17.5658 26.3504 17.4858 26.2613 17.2629 26.1922C15.0686 25.5162 13.5258 24.1009 12.6286 21.9721C11.0401 18.2008 13.2001 13.5923 17.0944 12.4244C19.2029 11.7915 21.2229 12.0331 23.1744 13.0055C23.4572 13.1464 23.6886 13.1407 23.9715 13.0026C24.6029 12.6948 25.2515 12.4272 25.9944 12.0993C25.2429 14.4179 24.5172 16.6531 23.7944 18.8883C23.4829 17.3234 22.7315 16.1008 21.3315 15.3471C20.3315 14.8091 19.2686 14.7027 18.1715 14.976C16.0572 15.5024 14.6458 17.5593 14.8772 19.7686C15.1058 21.9606 16.9344 23.6492 19.1115 23.7413C21.0915 23.8276 23.5344 22.3979 23.7429 19.3025C24.6172 19.3025 25.4915 19.3025 26.4344 19.3025C26.3429 22.162 25.0372 24.2533 22.5772 25.7089C23.0744 26.0829 23.5458 26.4367 24.0172 26.7906C25.1915 27.6708 26.3686 28.5511 27.5429 29.4342C28.1915 29.9204 28.1972 30.5216 27.5601 30.9992C25.0229 32.8978 22.4858 34.7935 19.9458 36.6893C19.3772 37.115 19.1372 37.1121 18.5658 36.6835C16.0915 34.8367 13.6201 32.9898 11.1486 31.1401C11.0515 31.0682 10.9572 30.9877 10.8201 30.8783C11.1429 30.4382 11.4601 30.0096 11.7944 29.5579C13.2344 30.6367 14.6486 31.6953 16.0601 32.7539C17.0401 33.4875 18.0201 34.2211 18.9944 34.9632C19.1629 35.0898 19.2829 35.1502 19.4858 34.9978C21.5486 33.4415 23.6172 31.8938 25.6858 30.3462C25.7172 30.3145 25.7486 30.2886 25.8315 30.2225Z" fill="#B57A3F"/>
<path d="M0 19.2484C6.12 13.9754 12.24 8.70534 18.3343 3.45538C17.5914 2.68442 16.86 1.92498 16.0857 1.12238C16.5343 0.739779 16.9343 0.380192 17.3629 0.0580029C17.4343 0.00334576 17.66 0.0781397 17.76 0.158687C18.4914 0.768546 19.2086 1.39566 19.9657 2.0458C20.6143 1.4906 21.2629 0.935394 21.9086 0.383069C21.9914 0.311152 22.0829 0.247865 22.1514 0.16444C22.3429 -0.0570648 22.5114 -0.0513114 22.7286 0.152934C23.0714 0.480877 23.4429 0.774299 23.7857 1.0706C23.0371 1.84443 22.3 2.60675 21.5343 3.39784C27.6771 8.68808 33.8057 13.9697 40.0029 19.3059C39.8114 19.3203 39.7 19.3376 39.5857 19.3376C38.04 19.3405 36.4914 19.329 34.9457 19.3462C34.6171 19.3491 34.3971 19.2427 34.1686 19.0154C29.5486 14.4271 24.9229 9.84738 20.3 5.26481C20.2029 5.16988 20.1029 5.07783 19.9714 4.95413C19.58 5.33961 19.1914 5.71358 18.8114 6.0933C14.4571 10.4112 10.1057 14.7263 5.76286 19.0499C5.55143 19.2599 5.34857 19.3462 5.05143 19.3433C3.38571 19.329 1.71714 19.3376 0.0485714 19.3376C0.0342857 19.3088 0.0171429 19.2772 0 19.2484Z" fill="#B57A3F"/>
</svg>
